<svg width="121" height="32" viewBox="0 0 121 32" fill="none" xmlns="http://www.w3.org/2000/svg">
<path opacity="0.5" d="M8 27.2608C5.33333 26.9375 1.33333 29.3565 0 31H120V1.09576L118.667 1.02599C117.333 0.956213 114.667 0.816667 112 3.79281C109.333 6.76896 106.667 12.8608 104 16.5953C101.333 20.3299 98.6667 21.7071 96 22.3425C93.3333 22.9779 90.6667 22.8715 88 20.8341C85.3333 18.7967 82.6667 14.8283 80 14.3325C77.3333 13.8366 74.6667 16.8133 72 16.4038C69.3333 15.9943 66.6667 12.1985 64 10.3951C61.3333 8.59165 58.6667 8.78062 56 12.2668C53.3333 15.7529 50.6667 22.5362 48 22.1906C45.3333 21.8451 42.6667 14.3706 40 13.0052C37.3333 11.6398 34.6667 16.3835 32 17.4077C29.3333 18.4319 26.6667 15.7367 24 18.124C21.3333 20.5113 18.6667 27.9811 16 29.7493C13.3333 31.5175 10.6667 27.584 8 27.2608Z" fill="url(#paint0_linear_62_562)"/>
<path d="M1 31C2.3243 29.3648 6.10977 26.8069 8.75838 27.1285C11.407 27.4501 14.0556 31.3638 16.7042 29.6045C19.3528 27.8452 22.0014 20.413 24.65 18.0377C27.2986 15.6624 29.9473 18.3441 32.5959 17.3251C35.2445 16.306 37.8931 11.5862 40.5417 12.9447C43.1903 14.3032 45.8389 21.7401 48.4875 22.0839C51.1361 22.4278 53.7848 15.6786 56.4334 12.21C59.082 8.74143 61.7306 8.55342 64.3792 10.3477C67.0278 12.1421 69.6764 15.9188 72.325 16.3262C74.9736 16.7337 77.6222 13.772 80.2709 14.2653C82.9195 14.7587 85.5681 18.7071 88.2167 20.7342C90.8653 22.7614 93.5139 22.8672 96.1625 22.235C98.8111 21.6028 101.46 20.2325 104.108 16.5168C106.757 12.8011 109.406 6.73991 112.054 3.77875C114.703 0.81759 117.351 0.956434 118.676 1.02586L120 1.09528" stroke="#8DCE21" stroke-width="2"/>
<defs>
<linearGradient id="paint0_linear_62_562" x1="60" y1="1" x2="60" y2="31" gradientUnits="userSpaceOnUse">
<stop stop-color="#8DCE21"/>
<stop offset="1" stop-color="#8DCE21" stop-opacity="0"/>
</linearGradient>
</defs>
</svg>
