<svg width="121" height="32" viewBox="0 0 121 32" fill="none" xmlns="http://www.w3.org/2000/svg">
<path d="M120 31C118.676 29.3648 114.89 26.8069 112.242 27.1285C109.593 27.4501 106.944 31.3638 104.296 29.6045C101.647 27.8452 98.9986 20.413 96.35 18.0377C93.7014 15.6624 91.0527 18.3441 88.4041 17.3251C85.7555 16.306 83.1069 11.5862 80.4583 12.9447C77.8097 14.3032 75.1611 21.7401 72.5125 22.0839C69.8639 22.4278 67.2152 15.6786 64.5666 12.21C61.918 8.74143 59.2694 8.55342 56.6208 10.3477C53.9722 12.1421 51.3236 15.9188 48.675 16.3262C46.0264 16.7337 43.3778 13.772 40.7291 14.2653C38.0805 14.7587 35.4319 18.7071 32.7833 20.7342C30.1347 22.7614 27.4861 22.8672 24.8375 22.235C22.1889 21.6028 19.5403 20.2325 16.8917 16.5168C14.243 12.8011 11.5944 6.73991 8.94583 3.77875C6.29722 0.81759 3.64861 0.956434 2.32431 1.02586L0.999997 1.09528" stroke="#F83C3C" stroke-width="2"/>
</svg>
