<svg width="26" height="26" viewBox="0 0 26 26" fill="none" xmlns="http://www.w3.org/2000/svg">
<path d="M0 5.85C0 3.09228 0 1.71343 0.856713 0.856713C1.71343 0 3.09228 0 5.85 0C8.60772 0 9.98657 0 10.8433 0.856713C11.7 1.71343 11.7 3.09228 11.7 5.85C11.7 8.60772 11.7 9.98657 10.8433 10.8433C9.98657 11.7 8.60772 11.7 5.85 11.7C3.09228 11.7 1.71343 11.7 0.856713 10.8433C0 9.98657 0 8.60772 0 5.85Z" fill="#0077CC"/>
<path d="M14.3 20.15C14.3 17.3923 14.3 16.0134 15.1568 15.1567C16.0135 14.3 17.3923 14.3 20.15 14.3C22.9078 14.3 24.2866 14.3 25.1433 15.1567C26 16.0134 26 17.3923 26 20.15C26 22.9077 26 24.2866 25.1433 25.1433C24.2866 26 22.9078 26 20.15 26C17.3923 26 16.0135 26 15.1568 25.1433C14.3 24.2866 14.3 22.9077 14.3 20.15Z" fill="#0077CC"/>
<path d="M0 20.15C0 17.3923 0 16.0134 0.856713 15.1567C1.71343 14.3 3.09228 14.3 5.85 14.3C8.60772 14.3 9.98657 14.3 10.8433 15.1567C11.7 16.0134 11.7 17.3923 11.7 20.15C11.7 22.9077 11.7 24.2866 10.8433 25.1433C9.98657 26 8.60772 26 5.85 26C3.09228 26 1.71343 26 0.856713 25.1433C0 24.2866 0 22.9077 0 20.15Z" fill="#0077CC"/>
<path d="M14.3 5.85C14.3 3.09228 14.3 1.71343 15.1568 0.856713C16.0135 0 17.3923 0 20.15 0C22.9078 0 24.2866 0 25.1433 0.856713C26 1.71343 26 3.09228 26 5.85C26 8.60772 26 9.98657 25.1433 10.8433C24.2866 11.7 22.9078 11.7 20.15 11.7C17.3923 11.7 16.0135 11.7 15.1568 10.8433C14.3 9.98657 14.3 8.60772 14.3 5.85Z" fill="#0077CC"/>
</svg>
