<svg width="24" height="26" viewBox="0 0 24 26" fill="none" xmlns="http://www.w3.org/2000/svg">
<path d="M8.45073 0C7.37369 0 6.50056 0.873121 6.50056 1.95017V3.25028C6.50056 4.32733 7.37369 5.20045 8.45073 5.20045H14.9513C16.0283 5.20045 16.9015 4.32733 16.9015 3.25028V1.95017C16.9015 0.873121 16.0283 0 14.9513 0H8.45073Z" fill="#0077CC"/>
<path fill-rule="evenodd" clip-rule="evenodd" d="M4.5504 2.64783C2.91498 2.73959 1.88254 3.00019 1.14238 3.74035C0 4.88273 0 6.72137 0 10.3986V18.1993C0 21.8766 0 23.7152 1.14238 24.8576C2.28477 26 4.1234 26 7.80068 26H15.6014C19.2786 26 21.1173 26 22.2597 24.8576C23.402 23.7152 23.402 21.8766 23.402 18.1993V10.3986C23.402 6.72137 23.402 4.88273 22.2597 3.74035C21.5195 3.00019 20.4871 2.73959 18.8516 2.64783V3.25028C18.8516 5.40438 17.1054 7.15062 14.9513 7.15062H8.45073C6.29664 7.15062 4.5504 5.40438 4.5504 3.25028V2.64783ZM5.20045 10.0759C4.66193 10.0759 4.22537 10.5124 4.22537 11.051C4.22537 11.5895 4.66193 12.026 5.20045 12.026H5.85051C6.38903 12.026 6.82559 11.5895 6.82559 11.051C6.82559 10.5124 6.38903 10.0759 5.85051 10.0759H5.20045ZM9.75085 10.0759C9.21232 10.0759 8.77576 10.5124 8.77576 11.051C8.77576 11.5895 9.21232 12.026 9.75085 12.026H18.2016C18.7401 12.026 19.1767 11.5895 19.1767 11.051C19.1767 10.5124 18.7401 10.0759 18.2016 10.0759H9.75085ZM5.20045 14.6263C4.66193 14.6263 4.22537 15.0628 4.22537 15.6014C4.22537 16.1399 4.66193 16.5764 5.20045 16.5764H5.85051C6.38903 16.5764 6.82559 16.1399 6.82559 15.6014C6.82559 15.0628 6.38903 14.6263 5.85051 14.6263H5.20045ZM9.75085 14.6263C9.21232 14.6263 8.77576 15.0628 8.77576 15.6014C8.77576 16.1399 9.21232 16.5764 9.75085 16.5764H18.2016C18.7401 16.5764 19.1767 16.1399 19.1767 15.6014C19.1767 15.0628 18.7401 14.6263 18.2016 14.6263H9.75085ZM5.20045 19.1767C4.66193 19.1767 4.22537 19.6132 4.22537 20.1518C4.22537 20.6903 4.66193 21.1268 5.20045 21.1268H5.85051C6.38903 21.1268 6.82559 20.6903 6.82559 20.1518C6.82559 19.6132 6.38903 19.1767 5.85051 19.1767H5.20045ZM9.75085 19.1767C9.21232 19.1767 8.77576 19.6132 8.77576 20.1518C8.77576 20.6903 9.21232 21.1268 9.75085 21.1268H18.2016C18.7401 21.1268 19.1767 20.6903 19.1767 20.1518C19.1767 19.6132 18.7401 19.1767 18.2016 19.1767H9.75085Z" fill="#0077CC"/>
</svg>
