<svg width="26" height="26" viewBox="0 0 26 26" fill="none" xmlns="http://www.w3.org/2000/svg">
<g opacity="0.5">
<path d="M14.3 17.42C14.3 14.7236 14.3 13.3753 15.1567 12.5377C16.0134 11.7 17.3923 11.7 20.15 11.7C22.9077 11.7 24.2866 11.7 25.1433 12.5377C26 13.3753 26 14.7236 26 17.42V20.28C26 22.9764 26 24.3246 25.1433 25.1623C24.2866 26 22.9077 26 20.15 26C17.3923 26 16.0134 26 15.1567 25.1623C14.3 24.3246 14.3 22.9764 14.3 20.28V17.42Z" fill="white"/>
<path d="M0 8.58C0 11.2764 0 12.6247 0.856713 13.4623C1.71343 14.3 3.09228 14.3 5.85 14.3C8.60772 14.3 9.98657 14.3 10.8433 13.4623C11.7 12.6247 11.7 11.2764 11.7 8.58V5.72C11.7 3.02357 11.7 1.67535 10.8433 0.837675C9.98657 0 8.60772 0 5.85 0C3.09228 0 1.71343 0 0.856713 0.837675C0 1.67535 0 3.02357 0 5.72V8.58Z" fill="white"/>
<path d="M14.3 4.55C14.3 3.13664 14.3 2.42997 14.5227 1.87253C14.8195 1.12927 15.3889 0.538764 16.1056 0.230899C16.6432 0 17.3246 0 18.6875 0H21.6125C22.9754 0 23.6568 0 24.1943 0.230899C24.9111 0.538764 25.4805 1.12927 25.7773 1.87253C26 2.42997 26 3.13664 26 4.55C26 5.96336 26 6.67003 25.7773 7.22747C25.4805 7.97072 24.9111 8.56124 24.1943 8.8691C23.6568 9.1 22.9754 9.1 21.6125 9.1H18.6875C17.3246 9.1 16.6432 9.1 16.1056 8.8691C15.3889 8.56124 14.8195 7.97072 14.5227 7.22747C14.3 6.67003 14.3 5.96336 14.3 4.55Z" fill="white"/>
<path d="M0 21.45C0 22.8634 0 23.57 0.222652 24.1275C0.519522 24.8707 1.08894 25.4612 1.80565 25.7691C2.34318 26 3.02462 26 4.3875 26H7.3125C8.67538 26 9.35682 26 9.89435 25.7691C10.6111 25.4612 11.1805 24.8707 11.4773 24.1275C11.7 23.57 11.7 22.8634 11.7 21.45C11.7 20.0366 11.7 19.33 11.4773 18.7725C11.1805 18.0293 10.6111 17.4388 9.89435 17.1309C9.35682 16.9 8.67538 16.9 7.3125 16.9H4.3875C3.02462 16.9 2.34318 16.9 1.80565 17.1309C1.08894 17.4388 0.519522 18.0293 0.222652 18.7725C0 19.33 0 20.0366 0 21.45Z" fill="white"/>
</g>
</svg>
