<svg width="26" height="26" viewBox="0 0 26 26" fill="none" xmlns="http://www.w3.org/2000/svg">
<g opacity="0.5">
<path d="M26 13C26 20.1797 20.1797 26 13 26C5.8203 26 0 20.1797 0 13C0 5.8203 5.8203 0 13 0C20.1797 0 26 5.8203 26 13Z" fill="white"/>
<path fill-rule="evenodd" clip-rule="evenodd" d="M13 6.825C13.5385 6.825 13.975 7.26152 13.975 7.8V12.5961L16.9394 15.5606C17.3202 15.9413 17.3202 16.5587 16.9394 16.9394C16.5587 17.3202 15.9413 17.3202 15.5606 16.9394L12.3106 13.6894C12.1277 13.5066 12.025 13.2586 12.025 13V7.8C12.025 7.26152 12.4615 6.825 13 6.825Z" fill="#2E353A"/>
</g>
</svg>
