<svg width="26" height="26" viewBox="0 0 26 26" fill="none" xmlns="http://www.w3.org/2000/svg">
<g opacity="0.5">
<path fill-rule="evenodd" clip-rule="evenodd" d="M0.708458 8.74906C0 10.1395 0 11.9597 0 15.6C0 19.2403 0 21.0605 0.708458 22.4509C1.33163 23.674 2.32601 24.6684 3.54906 25.2915C4.93949 26 6.75966 26 10.4 26H15.6C19.2403 26 21.0605 26 22.4509 25.2915C23.674 24.6684 24.6684 23.674 25.2915 22.4509C26 21.0605 26 19.2403 26 15.6C26 11.9597 26 10.1395 25.2915 8.74906C24.6684 7.52601 23.674 6.53163 22.4509 5.90846C21.0605 5.2 19.2403 5.2 15.6 5.2H10.4C6.75966 5.2 4.93949 5.2 3.54906 5.90846C2.32601 6.53163 1.33163 7.52601 0.708458 8.74906ZM16.9773 13.6494C17.3359 13.2477 17.301 12.6314 16.8994 12.2727C16.4977 11.9141 15.8814 11.949 15.5227 12.3506L11.6072 16.7361L10.4773 15.4706C10.1187 15.069 9.50231 15.0341 9.10064 15.3927C8.69897 15.7514 8.66409 16.3677 9.02272 16.7694L10.8799 18.8494C11.0648 19.0566 11.3294 19.175 11.6072 19.175C11.8849 19.175 12.1495 19.0566 12.3344 18.8494L16.9773 13.6494Z" fill="white"/>
<path d="M24.0953 1.90381C22.1915 0 19.1273 0 12.9991 0C6.87083 0 3.8067 0 1.9029 1.90381C0.918161 2.88854 0.442776 4.18371 0.213281 6.05278C0.903144 5.28491 1.73206 4.64526 2.66287 4.17099C3.6788 3.65335 4.76663 3.44344 5.97111 3.34503C7.13478 3.24996 8.56662 3.24998 10.3174 3.25H15.6808C17.4316 3.24998 18.8634 3.24996 20.0271 3.34503C21.2316 3.44344 22.3194 3.65335 23.3353 4.17099C24.2661 4.64526 25.095 5.28491 25.7849 6.05278C25.5554 4.18371 25.08 2.88854 24.0953 1.90381Z" fill="white"/>
</g>
</svg>
