<svg width="29" height="26" viewBox="0 0 29 26" fill="none" xmlns="http://www.w3.org/2000/svg">
<path fill-rule="evenodd" clip-rule="evenodd" d="M0 5.77778C0 3.05411 0 1.69227 0.846136 0.846136C1.69227 0 3.05411 0 5.77778 0H23.1111C25.8348 0 27.1966 0 28.0428 0.846136C28.8889 1.69227 28.8889 3.05411 28.8889 5.77778C28.8889 8.50145 28.8889 9.86328 28.0428 10.7094C27.1966 11.5556 25.8348 11.5556 23.1111 11.5556H5.77778C3.05411 11.5556 1.69227 11.5556 0.846136 10.7094C0 9.86328 0 8.50145 0 5.77778ZM5.77778 4.69444C5.17947 4.69444 4.69444 5.17947 4.69444 5.77778C4.69444 6.37609 5.17947 6.86111 5.77778 6.86111H8.66667C9.26498 6.86111 9.75 6.37609 9.75 5.77778C9.75 5.17947 9.26498 4.69444 8.66667 4.69444H5.77778ZM11.9167 5.77778C11.9167 5.17947 12.4017 4.69444 13 4.69444H23.1111C23.7094 4.69444 24.1944 5.17947 24.1944 5.77778C24.1944 6.37609 23.7094 6.86111 23.1111 6.86111H13C12.4017 6.86111 11.9167 6.37609 11.9167 5.77778Z" fill="#0077CC"/>
<path fill-rule="evenodd" clip-rule="evenodd" d="M0 20.2222C0 17.4986 0 16.1367 0.846136 15.2906C1.69227 14.4444 3.05411 14.4444 5.77778 14.4444H23.1111C25.8348 14.4444 27.1966 14.4444 28.0428 15.2906C28.8889 16.1367 28.8889 17.4986 28.8889 20.2222C28.8889 22.9459 28.8889 24.3077 28.0428 25.1539C27.1966 26 25.8348 26 23.1111 26H5.77778C3.05411 26 1.69227 26 0.846136 25.1539C0 24.3077 0 22.9459 0 20.2222ZM5.77778 19.1389C5.17947 19.1389 4.69444 19.6239 4.69444 20.2222C4.69444 20.8205 5.17947 21.3056 5.77778 21.3056H8.66667C9.26498 21.3056 9.75 20.8205 9.75 20.2222C9.75 19.6239 9.26498 19.1389 8.66667 19.1389H5.77778ZM11.9167 20.2222C11.9167 19.6239 12.4017 19.1389 13 19.1389H23.1111C23.7094 19.1389 24.1944 19.6239 24.1944 20.2222C24.1944 20.8205 23.7094 21.3056 23.1111 21.3056H13C12.4017 21.3056 11.9167 20.8205 11.9167 20.2222Z" fill="#0077CC"/>
</svg>
