<svg width="20" height="22" viewBox="0 0 20 22" fill="none" xmlns="http://www.w3.org/2000/svg">
<path d="M5.88697 20.066C6.81217 21.2421 8.2656 22 9.90001 22C11.5344 22 12.9878 21.2421 13.913 20.066C11.2491 20.427 8.55093 20.427 5.88697 20.066Z" fill="#0077CC"/>
<path d="M17.324 7.7V8.47451C17.324 9.404 17.5893 10.3127 18.0864 11.0861L19.3046 12.9813C20.4173 14.7123 19.5679 17.0653 17.6326 17.6127C12.57 19.0447 7.23001 19.0447 2.1674 17.6127C0.232151 17.0653 -0.617294 14.7123 0.495395 12.9813L1.71358 11.0861C2.21069 10.3127 2.47596 9.404 2.47596 8.47451V7.7C2.47596 3.44741 5.79981 0 9.9 0C14.0002 0 17.324 3.44741 17.324 7.7Z" fill="#0077CC"/>
</svg>
