<svg width="24" height="26" viewBox="0 0 24 26" fill="none" xmlns="http://www.w3.org/2000/svg">
<path d="M6.95733 23.7144C8.05074 25.1043 9.76844 26 11.7 26C13.6316 26 15.3493 25.1043 16.4427 23.7144C13.2944 24.141 10.1056 24.141 6.95733 23.7144Z" fill="white"/>
<path d="M20.4739 9.1V10.0153C20.4739 11.1138 20.7874 12.1877 21.3749 13.1017L22.8145 15.3415C24.1295 17.3873 23.1256 20.1681 20.8385 20.815C14.8554 22.5074 8.54456 22.5074 2.56147 20.815C0.27436 20.1681 -0.729529 17.3873 0.585467 15.3415L2.02514 13.1017C2.61263 12.1877 2.92613 11.1138 2.92613 10.0153V9.1C2.92613 4.07421 6.85433 0 11.7 0C16.5457 0 20.4739 4.07421 20.4739 9.1Z" fill="white"/>
</svg>
