<svg width="21" height="21" viewBox="0 0 21 21" fill="none" xmlns="http://www.w3.org/2000/svg">
<path fill-rule="evenodd" clip-rule="evenodd" d="M2.4677 1.8419C3.69388 0.550962 5.7221 0.792827 6.73569 2.22641L7.99668 4.00989C8.80741 5.15656 8.73893 6.75073 7.77135 7.7694L7.5265 8.02719C7.52582 8.02897 7.5251 8.0309 7.52436 8.03299C7.51142 8.06935 7.4787 8.18513 7.5109 8.40489C7.57765 8.86042 7.9293 9.78611 9.35695 11.2892C10.7891 12.7969 11.6578 13.1523 12.0603 13.2177C12.234 13.2459 12.3248 13.2214 12.3538 13.2112L12.7624 12.781C13.6362 11.861 14.9985 11.6798 16.097 12.3121L18.0075 13.4117C19.6404 14.3516 20.0205 16.6508 18.7155 18.0247L17.295 19.5203C16.8516 19.9871 16.247 20.3855 15.5 20.4592C13.6761 20.6393 9.45099 20.4048 5.02161 15.7415C0.888441 11.39 0.103261 7.60513 0.00400504 5.75591C-0.0450347 4.84224 0.362244 4.05855 0.898095 3.4944L2.4677 1.8419ZM5.5109 3.09237C4.99855 2.36773 4.07812 2.32449 3.55528 2.87493L1.98568 4.52743C1.65429 4.87632 1.48042 5.27621 1.50185 5.67552C1.58289 7.18533 2.23307 10.6276 6.10919 14.7084C10.1734 18.9873 13.9176 19.1081 15.3526 18.9665C15.6364 18.9385 15.9283 18.781 16.2074 18.4873L17.6279 16.9917C18.2407 16.3465 18.0801 15.1842 17.2592 14.7118L15.3487 13.6121C14.836 13.317 14.2354 13.4082 13.85 13.814L13.3945 14.2935L12.8674 13.7928C13.3945 14.2935 13.3938 14.2942 13.3932 14.295L13.3917 14.2964L13.3888 14.2995L13.3824 14.306L13.3681 14.3201C13.3578 14.3301 13.3459 14.341 13.3325 14.3528C13.3056 14.3764 13.2723 14.4033 13.2324 14.4316C13.1522 14.4884 13.0455 14.5509 12.9106 14.6041C12.6346 14.713 12.2701 14.7714 11.8199 14.6983C10.9423 14.5558 9.79222 13.9255 8.26937 12.3222C6.74202 10.7142 6.15746 9.51445 6.02675 8.62234C5.96022 8.16827 6.01346 7.80468 6.11116 7.53011C6.15921 7.39508 6.21594 7.28742 6.26826 7.20566C6.29435 7.16489 6.31922 7.13075 6.3412 7.10298C6.35219 7.08909 6.36246 7.07678 6.37182 7.06603L6.38514 7.05104L6.39125 7.04441L6.39415 7.0413L6.39556 7.0398C6.39625 7.03907 6.39694 7.03835 6.92861 7.54333L6.39695 7.03834L6.68376 6.73637C7.1293 6.26731 7.19403 5.47292 6.77189 4.87586L5.5109 3.09237Z" fill="#0077CC"/>
<path d="M11.0095 0.629831C11.0757 0.220941 11.4622 -0.056433 11.8711 0.0097645C11.8964 0.0146093 11.9779 0.0298297 12.0205 0.0393323C12.1059 0.0583355 12.2249 0.0875934 12.3733 0.130819C12.6701 0.217262 13.0847 0.359667 13.5823 0.587803C14.5786 1.04456 15.9044 1.84356 17.2802 3.21936C18.656 4.59516 19.455 5.92097 19.9117 6.91725C20.1399 7.41487 20.2823 7.82947 20.3687 8.12625C20.4119 8.27466 20.4412 8.39369 20.4602 8.47901C20.4697 8.52168 20.4767 8.55594 20.4815 8.58125L20.4873 8.61245C20.5534 9.02134 20.2786 9.42385 19.8697 9.49005C19.462 9.55606 19.0779 9.28003 19.0101 8.87306C19.008 8.86213 19.0022 8.83277 18.9961 8.80508C18.9837 8.7497 18.9624 8.66188 18.9286 8.54572C18.8609 8.31339 18.7434 7.96806 18.5482 7.54238C18.1584 6.69207 17.4574 5.51789 16.2195 4.28002C14.9817 3.04216 13.8075 2.34117 12.9572 1.95134C12.5315 1.75618 12.1862 1.63865 11.9538 1.57097C11.8377 1.53714 11.6917 1.50363 11.6363 1.4913C11.2293 1.42347 10.9435 1.03755 11.0095 0.629831Z" fill="#0077CC"/>
<path fill-rule="evenodd" clip-rule="evenodd" d="M11.2361 4.07931C11.3499 3.68103 11.765 3.45041 12.1633 3.56421L11.9572 4.28535C12.1633 3.56421 12.1629 3.5641 12.1633 3.56421L12.1647 3.56462L12.1662 3.56506L12.1696 3.56604L12.1773 3.56835L12.1971 3.57451C12.2122 3.57934 12.231 3.58562 12.2535 3.59358C12.2984 3.60952 12.3577 3.63218 12.4305 3.66339C12.5762 3.72582 12.7753 3.82224 13.0198 3.96695C13.5093 4.25664 14.1775 4.73781 14.9624 5.52279C15.7474 6.30776 16.2286 6.97595 16.5183 7.46541C16.663 7.70992 16.7594 7.90898 16.8218 8.05467C16.853 8.12747 16.8757 8.18683 16.8916 8.23174C16.8996 8.2542 16.9059 8.27302 16.9107 8.2881L16.9169 8.30789L16.9192 8.31564L16.9202 8.31898L16.9206 8.32051C16.9207 8.32086 16.921 8.32195 16.1999 8.52799L16.921 8.32195C17.0348 8.72023 16.8042 9.13534 16.4059 9.24913C16.011 9.36196 15.5996 9.1362 15.4817 8.74414L15.478 8.73336C15.4727 8.71833 15.4616 8.68875 15.4431 8.64555C15.4061 8.55921 15.339 8.41798 15.2274 8.22939C15.0044 7.85265 14.6017 7.2834 13.9018 6.58345C13.2018 5.88349 12.6326 5.48079 12.2558 5.25782C12.0672 5.1462 11.926 5.0791 11.8397 5.0421C11.7965 5.02359 11.7669 5.01256 11.7519 5.00722L11.7411 5.00353C11.349 4.88565 11.1233 4.4742 11.2361 4.07931Z" fill="#0077CC"/>
</svg>
