<svg width="22" height="22" viewBox="0 0 22 22" fill="none" xmlns="http://www.w3.org/2000/svg">
<path d="M7.75 14.75C7.75 15.3023 7.30229 15.75 6.75 15.75C6.19772 15.75 5.75 15.3023 5.75 14.75C5.75 14.1977 6.19772 13.75 6.75 13.75C7.30229 13.75 7.75 14.1977 7.75 14.75Z" fill="#0077CC"/>
<path d="M11.75 14.75C11.75 15.3023 11.3023 15.75 10.75 15.75C10.1977 15.75 9.75 15.3023 9.75 14.75C9.75 14.1977 10.1977 13.75 10.75 13.75C11.3023 13.75 11.75 14.1977 11.75 14.75Z" fill="#0077CC"/>
<path d="M14.75 15.75C15.3023 15.75 15.75 15.3023 15.75 14.75C15.75 14.1977 15.3023 13.75 14.75 13.75C14.1977 13.75 13.75 14.1977 13.75 14.75C13.75 15.3023 14.1977 15.75 14.75 15.75Z" fill="#0077CC"/>
<path fill-rule="evenodd" clip-rule="evenodd" d="M4 6.75V8.05277C3.77317 8.06872 3.55938 8.08948 3.35825 8.11652C2.45814 8.23754 1.70027 8.49643 1.09835 9.09835C0.496434 9.70027 0.237541 10.4581 0.116524 11.3582C-3.5964e-05 12.2252 -1.96761e-05 13.3275 5.3002e-07 14.6951V14.8049C-1.96761e-05 16.1725 -3.5964e-05 17.2748 0.116524 18.1418C0.237541 19.0419 0.496434 19.7997 1.09835 20.4016C1.70027 21.0036 2.45814 21.2625 3.35825 21.3835C4.22522 21.5 5.32754 21.5 6.69513 21.5H14.8049C16.1725 21.5 17.2748 21.5 18.1418 21.3835C19.0419 21.2625 19.7997 21.0036 20.4017 20.4016C21.0036 19.7997 21.2625 19.0419 21.3835 18.1418C21.5 17.2748 21.5 16.1725 21.5 14.8049V14.6951C21.5 13.3275 21.5 12.2252 21.3835 11.3582C21.2625 10.4581 21.0036 9.70027 20.4017 9.09835C19.7997 8.49643 19.0419 8.23754 18.1418 8.11652C17.9406 8.08948 17.7268 8.06872 17.5 8.05277V6.75C17.5 3.02208 14.4779 0 10.75 0C7.02208 0 4 3.02208 4 6.75ZM10.75 1.5C7.85051 1.5 5.5 3.85051 5.5 6.75V8.00344C5.87349 7.99999 6.27152 7.99999 6.69499 8H14.8049C15.2283 7.99999 15.6265 7.99999 16 8.00344V6.75C16 3.85051 13.6495 1.5 10.75 1.5ZM3.55812 9.60315C2.82435 9.7018 2.43577 9.88225 2.15901 10.159C1.88225 10.4358 1.7018 10.8243 1.60315 11.5581C1.50159 12.3135 1.5 13.3146 1.5 14.75C1.5 16.1854 1.50159 17.1865 1.60315 17.9419C1.7018 18.6757 1.88225 19.0642 2.15901 19.341C2.43577 19.6178 2.82435 19.7982 3.55812 19.8969C4.31347 19.9984 5.31459 20 6.75 20H14.75C16.1854 20 17.1865 19.9984 17.9419 19.8969C18.6757 19.7982 19.0642 19.6178 19.341 19.341C19.6178 19.0642 19.7982 18.6757 19.8969 17.9419C19.9984 17.1865 20 16.1854 20 14.75C20 13.3146 19.9984 12.3135 19.8969 11.5581C19.7982 10.8243 19.6178 10.4358 19.341 10.159C19.0642 9.88225 18.6757 9.7018 17.9419 9.60315C17.1865 9.50159 16.1854 9.5 14.75 9.5H6.75C5.31459 9.5 4.31347 9.50159 3.55812 9.60315Z" fill="#0077CC"/>
</svg>
